<mxfile host="app.diagrams.net" modified="2024-03-12T13:45:08.951Z" agent="Mozilla/5.0 (X11; Linux x86_64) AppleWebKit/537.36 (KHTML, like Gecko) Chrome/122.0.0.0 Safari/537.36" etag="iyp_YzCckDjM_pghGoKk" version="24.0.4" type="google">
  <diagram name="Page-1" id="c4acf3e9-155e-7222-9cf6-157b1a14988f">
    <mxGraphModel grid="1" page="1" gridSize="10" guides="1" tooltips="1" connect="1" arrows="1" fold="1" pageScale="1" pageWidth="850" pageHeight="1100" background="none" math="0" shadow="0">
      <root>
        <mxCell id="0" />
        <mxCell id="1" parent="0" />
        <mxCell id="2EXSTaosTSZ8Mb0Mk0x9-1" value="Client1" style="shape=umlLifeline;perimeter=lifelinePerimeter;whiteSpace=wrap;container=1;dropTarget=0;collapsible=0;recursiveResize=0;outlineConnect=0;portConstraint=eastwest;newEdgeStyle={&quot;edgeStyle&quot;:&quot;elbowEdgeStyle&quot;,&quot;elbow&quot;:&quot;vertical&quot;,&quot;curved&quot;:0,&quot;rounded&quot;:0};size=65;" vertex="1" parent="1">
          <mxGeometry x="20" y="20" width="150" height="390" as="geometry" />
        </mxCell>
        <mxCell id="2EXSTaosTSZ8Mb0Mk0x9-2" value="SceneGraph" style="shape=umlLifeline;perimeter=lifelinePerimeter;whiteSpace=wrap;container=1;dropTarget=0;collapsible=0;recursiveResize=0;outlineConnect=0;portConstraint=eastwest;newEdgeStyle={&quot;edgeStyle&quot;:&quot;elbowEdgeStyle&quot;,&quot;elbow&quot;:&quot;vertical&quot;,&quot;curved&quot;:0,&quot;rounded&quot;:0};size=65;" vertex="1" parent="1">
          <mxGeometry x="310" y="20" width="150" height="390" as="geometry" />
        </mxCell>
        <mxCell id="2EXSTaosTSZ8Mb0Mk0x9-23" value="" style="edgeStyle=elbowEdgeStyle;rounded=0;orthogonalLoop=1;jettySize=auto;html=1;elbow=vertical;curved=0;" edge="1" parent="1">
          <mxGeometry relative="1" as="geometry">
            <mxPoint x="806.5" y="360" as="targetPoint" />
            <mxPoint x="606.5" y="360" as="sourcePoint" />
          </mxGeometry>
        </mxCell>
        <mxCell id="2EXSTaosTSZ8Mb0Mk0x9-24" value="render()" style="edgeLabel;html=1;align=center;verticalAlign=middle;resizable=0;points=[];" connectable="0" vertex="1" parent="2EXSTaosTSZ8Mb0Mk0x9-23">
          <mxGeometry x="-0.38" y="1" relative="1" as="geometry">
            <mxPoint x="2" y="-9" as="offset" />
          </mxGeometry>
        </mxCell>
        <mxCell id="2EXSTaosTSZ8Mb0Mk0x9-3" value="SceneNode" style="shape=umlLifeline;perimeter=lifelinePerimeter;whiteSpace=wrap;container=1;dropTarget=0;collapsible=0;recursiveResize=0;outlineConnect=0;portConstraint=eastwest;newEdgeStyle={&quot;edgeStyle&quot;:&quot;elbowEdgeStyle&quot;,&quot;elbow&quot;:&quot;vertical&quot;,&quot;curved&quot;:0,&quot;rounded&quot;:0};size=65;" vertex="1" parent="1">
          <mxGeometry x="532" y="20" width="150" height="390" as="geometry" />
        </mxCell>
        <mxCell id="2EXSTaosTSZ8Mb0Mk0x9-21" style="edgeStyle=elbowEdgeStyle;rounded=0;orthogonalLoop=1;jettySize=auto;html=1;elbow=vertical;curved=0;" edge="1" parent="1">
          <mxGeometry relative="1" as="geometry">
            <mxPoint x="806.5" y="320" as="sourcePoint" />
            <mxPoint x="606.5" y="320" as="targetPoint" />
          </mxGeometry>
        </mxCell>
        <mxCell id="2EXSTaosTSZ8Mb0Mk0x9-22" value="update(SceneNode*)" style="edgeLabel;html=1;align=center;verticalAlign=middle;resizable=0;points=[];" connectable="0" vertex="1" parent="2EXSTaosTSZ8Mb0Mk0x9-21">
          <mxGeometry x="0.1" relative="1" as="geometry">
            <mxPoint y="-10" as="offset" />
          </mxGeometry>
        </mxCell>
        <mxCell id="2EXSTaosTSZ8Mb0Mk0x9-4" value="Client2" style="shape=umlLifeline;perimeter=lifelinePerimeter;whiteSpace=wrap;container=1;dropTarget=0;collapsible=0;recursiveResize=0;outlineConnect=0;portConstraint=eastwest;newEdgeStyle={&quot;edgeStyle&quot;:&quot;elbowEdgeStyle&quot;,&quot;elbow&quot;:&quot;vertical&quot;,&quot;curved&quot;:0,&quot;rounded&quot;:0};size=65;" vertex="1" parent="1">
          <mxGeometry x="732" y="20" width="150" height="390" as="geometry" />
        </mxCell>
        <mxCell id="2EXSTaosTSZ8Mb0Mk0x9-5" value="trigger transformation change" style="verticalAlign=bottom;endArrow=block;edgeStyle=elbowEdgeStyle;elbow=vertical;curved=0;rounded=0;" edge="1" parent="1" source="2EXSTaosTSZ8Mb0Mk0x9-1" target="2EXSTaosTSZ8Mb0Mk0x9-2">
          <mxGeometry relative="1" as="geometry">
            <Array as="points">
              <mxPoint x="250" y="121" />
            </Array>
          </mxGeometry>
        </mxCell>
        <mxCell id="2EXSTaosTSZ8Mb0Mk0x9-6" value="transform(SceneNode*)" style="verticalAlign=bottom;endArrow=block;edgeStyle=elbowEdgeStyle;elbow=vertical;curved=0;rounded=0;" edge="1" parent="1" source="2EXSTaosTSZ8Mb0Mk0x9-2" target="2EXSTaosTSZ8Mb0Mk0x9-3">
          <mxGeometry relative="1" as="geometry">
            <Array as="points">
              <mxPoint x="506" y="167" />
            </Array>
          </mxGeometry>
        </mxCell>
        <mxCell id="2EXSTaosTSZ8Mb0Mk0x9-7" value="notifySceneGraph()" style="verticalAlign=bottom;endArrow=block;edgeStyle=elbowEdgeStyle;elbow=vertical;curved=0;rounded=0;" edge="1" parent="1" source="2EXSTaosTSZ8Mb0Mk0x9-3" target="2EXSTaosTSZ8Mb0Mk0x9-2">
          <mxGeometry relative="1" as="geometry">
            <Array as="points">
              <mxPoint x="550" y="260" />
              <mxPoint x="506" y="213" />
            </Array>
          </mxGeometry>
        </mxCell>
        <mxCell id="2EXSTaosTSZ8Mb0Mk0x9-8" value="notify(Client2)" style="verticalAlign=bottom;endArrow=block;edgeStyle=elbowEdgeStyle;elbow=vertical;curved=0;rounded=0;" edge="1" parent="1">
          <mxGeometry x="0.3057" relative="1" as="geometry">
            <Array as="points">
              <mxPoint x="500" y="290" />
              <mxPoint x="606" y="229" />
            </Array>
            <mxPoint x="384.5" y="290" as="sourcePoint" />
            <mxPoint x="806.5" y="290" as="targetPoint" />
            <mxPoint as="offset" />
          </mxGeometry>
        </mxCell>
        <mxCell id="2EXSTaosTSZ8Mb0Mk0x9-14" value="" style="endArrow=classic;html=1;rounded=0;" edge="1" parent="1" source="2EXSTaosTSZ8Mb0Mk0x9-2" target="2EXSTaosTSZ8Mb0Mk0x9-2">
          <mxGeometry relative="1" as="geometry">
            <mxPoint x="390" y="250" as="sourcePoint" />
            <mxPoint x="490" y="250" as="targetPoint" />
            <Array as="points">
              <mxPoint x="430" y="250" />
              <mxPoint x="430" y="280" />
            </Array>
          </mxGeometry>
        </mxCell>
        <mxCell id="2EXSTaosTSZ8Mb0Mk0x9-15" value="notifyClients()" style="edgeLabel;resizable=0;html=1;;align=center;verticalAlign=middle;" connectable="0" vertex="1" parent="2EXSTaosTSZ8Mb0Mk0x9-14">
          <mxGeometry relative="1" as="geometry" />
        </mxCell>
      </root>
    </mxGraphModel>
  </diagram>
</mxfile>
